<svg width="540" height="400" viewBox="0 0 540 400" fill="none" xmlns="http://www.w3.org/2000/svg">
<path d="M5.48479 32.6261C-19.4949 4.53169 578.133 -24.0014 538.071 32.6261C523.2 53.6473 519.369 107.939 520.432 167.904C522.531 286.309 436.438 392.172 318.075 395.948C154.219 401.175 -34.7575 404.005 5.48479 387.318C74.2967 358.785 30.4645 60.7206 5.48479 32.6261Z" fill="#1AB42A"/>
<path d="M151.82 338V58.7031H270.961C324.086 58.7031 350.648 80.3828 350.648 123.742C350.648 155.513 333.331 178.234 298.695 191.906C335.674 198.807 354.164 219.966 354.164 255.383C354.164 310.461 325.062 338 266.859 338H151.82ZM264.711 308.703C298.044 308.703 314.711 291.776 314.711 257.922C314.711 224.979 292.38 208.508 247.719 208.508H232.094V184.875C285.479 177.714 312.172 158.443 312.172 127.062C312.172 101.021 297.328 88 267.641 88H187.953V308.703H264.711Z" fill="black"/>
</svg>
