<svg width="160" height="120" viewBox="0 0 160 120" fill="none" xmlns="http://www.w3.org/2000/svg">
<path d="M160 93.83C160 126.449 116.231 118.919 79.6787 118.919C43.1259 118.919 0 58.3244 0 25.7051C0 -6.91419 43.1259 0.793925 79.6787 0.793925C116.231 0.793925 160 61.2108 160 93.83Z" fill="#00E6CA"/>
<path d="M55.8735 89.375V26.5332H83.4339C95.723 26.5332 101.867 31.4111 101.867 41.167C101.867 48.3154 97.8615 53.4277 89.8493 56.5039C98.4039 58.0566 102.681 62.8175 102.681 70.7862C102.681 83.1787 95.9486 89.375 82.4848 89.375H55.8735ZM81.9881 82.7831C89.699 82.7831 93.5544 78.9744 93.5544 71.3575C93.5544 63.945 88.3887 60.2392 78.0575 60.2392H74.443V54.9219C86.792 53.3105 92.9671 48.9746 92.9671 41.914C92.9671 36.0547 89.5332 33.125 82.6654 33.125H64.2319V82.7831H81.9881Z" fill="black"/>
</svg>
